<svg width="34" height="33" viewBox="0 0 34 33" fill="none" xmlns="http://www.w3.org/2000/svg">
<g clip-path="url(#clip0_101_437)">
<path d="M11.9581 10.5304C12.0268 9.86369 12.0529 9.21828 12.1642 8.58552C12.4346 7.04972 13.1153 5.72182 14.2652 4.63579C16.7922 2.24868 20.6108 2.21641 23.2612 4.35236C25.0693 5.81014 25.9048 7.7464 26.1773 9.99104C26.4446 12.2005 26.2389 14.3889 25.8577 16.5681C25.4811 18.6611 24.9541 20.7251 24.2808 22.7442C23.8128 24.1698 22.8344 24.9642 21.3433 25.1148C18.1241 25.4448 14.9051 25.5469 11.6964 25.0719C9.88441 24.8044 8.13103 24.3425 6.52985 23.4212C3.71953 21.8053 2.26751 18.5481 3.00735 15.4807C3.29926 14.2326 3.95745 13.0979 4.89743 12.2221C6.81339 10.4198 9.08164 10.0052 11.5826 10.4807C11.6808 10.5019 11.7743 10.521 11.8703 10.537C11.8997 10.5387 11.9292 10.5364 11.9581 10.5304Z" fill="#FCDDEC"/>
</g>
<defs>
<clipPath id="clip0_101_437">
<rect width="25.6778" height="21.0091" fill="white" transform="translate(0 16.1475) rotate(-38.9646)"/>
</clipPath>
</defs>
</svg>
